<svg xmlns="http://www.w3.org/2000/svg" viewBox="0 0 32 32">
  <rect width="32" height="32" rx="6" fill="#0ea5e9"/>
  <rect x="8" y="9" width="16" height="12" rx="2" fill="white" opacity="0.95"/>
  <line x1="16" y1="10" x2="16" y2="20" stroke="#0ea5e9" stroke-width="0.5" opacity="0.3"/>
  <g transform="translate(12,5)" fill="#facc15">
    <polygon points="0,-3 1,-1 3,0 1,1 0,3 -1,1 -3,0 -1,-1"/>
  </g>
  <g transform="translate(22,7)" fill="#facc15">
    <polygon points="0,-2 0.7,-0.7 2,0 0.7,0.7 0,2 -0.7,0.7 -2,0 -0.7,-0.7"/>
  </g>
  <g transform="translate(16,25)" fill="#f97316">
    <path d="M0,1.5 C0,1.5 -4,-2 -4,-3.5 C-4,-5 -2.5,-5.5 -1.5,-4.5 C-0.5,-4 0,-3.5 0,-3.5 C0,-3.5 0.5,-4 1.5,-4.5 C2.5,-5.5 4,-5 4,-3.5 C4,-2 0,1.5 0,1.5Z"/>
  </g>
</svg>
